<svg width="20" height="20" viewBox="0 0 24 24" fill="none" xmlns="http://www.w3.org/2000/svg">
  <path d="M20.8 8.6c-.2-1.5-.4-2.6-1-3.5-.6-.9-1.4-1.4-2.4-1.7-1.2-.3-2.8-.4-4.8-.4h-3.2c-2 0-3.6.1-4.8.4-1 .3-1.8.8-2.4 1.7-.6.9-.8 2-1 3.5C1 10.2 1 11.9 1 14v2c0 2.1.1 3.8.4 5.4.2 1.5.4 2.6 1 3.5.6.9 1.4 1.4 2.4 1.7 1.2.3 2.8.4 4.8.4h3.2c2 0 3.6-.1 4.8-.4 1-.3 1.8-.8 2.4-1.7.6-.9.8-2 1-3.5.3-1.6.4-3.3.4-5.4v-2c0-2.1-.1-3.8-.4-5.4zm-5.6 7.4l-5.2 3.1c-.4.2-.8.1-1-.2-.1-.1-.2-.3-.2-.5v-6.2c0-.4.3-.7.7-.7.1 0 .3.1.4.2l5.2 3.1c.3.2.4.5.3.8 0 .3-.2.5-.4.6z" fill="currentColor"/>
</svg>